<?xml version="1.0" encoding="UTF-8"?>
<svg id="Layer_2" data-name="Layer 2" xmlns="http://www.w3.org/2000/svg" viewBox="0 0 235.77 98.91">
  <defs>
    <style>
      .cls-1 {
        font-family: "Roboto Condensed", Arial-BoldMT, Arial;
        font-size: 14px;
        font-weight: 700;
      }
    </style>
  </defs>
  <g id="Layer_1-2" data-name="Layer 1">
    <path d="m17.27,28.05h13.75v-3h-13.75v3Zm0-8.55h20.3v-3h-20.3v3Zm0-8.55h20.3v-3h-20.3v3Zm-4.85,25.05c-.8,0-1.5-.3-2.1-.9-.6-.6-.9-1.3-.9-2.1V3c0-.8.3-1.5.9-2.1.6-.6,1.3-.9,2.1-.9h30c.8,0,1.5.3,2.1.9.6.6.9,1.3.9,2.1v30c0,.8-.3,1.5-.9,2.1-.6.6-1.3.9-2.1.9H12.42Zm0-3h30V3H12.42v30Zm0-30v30V3Z"/>
    <path d="m107.27,28.05h13.75v-3h-13.75v3Zm0-8.55h20.3v-3h-20.3v3Zm0-8.55h20.3v-3h-20.3v3Zm-4.85,25.05c-.8,0-1.5-.3-2.1-.9-.6-.6-.9-1.3-.9-2.1V3c0-.8.3-1.5.9-2.1.6-.6,1.3-.9,2.1-.9h30c.8,0,1.5.3,2.1.9.6.6.9,1.3.9,2.1v30c0,.8-.3,1.5-.9,2.1-.6.6-1.3.9-2.1.9h-30Zm0-3h30V3h-30v30Zm0-30v30V3Z"/>
    <polygon points="89.42 18 83.12 24.3 81.02 22.2 83.57 19.5 55.42 19.5 55.42 16.5 83.57 16.5 81.02 13.8 83.12 11.7 89.42 18"/>
    <path d="m197.27,28.05h13.75v-3h-13.75v3Zm0-8.55h20.3v-3h-20.3v3Zm0-8.55h20.3v-3h-20.3v3Zm-4.85,25.05c-.8,0-1.5-.3-2.1-.9-.6-.6-.9-1.3-.9-2.1V3c0-.8.3-1.5.9-2.1.6-.6,1.3-.9,2.1-.9h30c.8,0,1.5.3,2.1.9.6.6.9,1.3.9,2.1v30c0,.8-.3,1.5-.9,2.1-.6.6-1.3.9-2.1.9h-30Zm0-3h30V3h-30v30Zm0-30v30V3Z"/>
    <polygon points="179.42 18 173.12 24.3 171.02 22.2 173.57 19.5 145.42 19.5 145.42 16.5 173.57 16.5 171.02 13.8 173.12 11.7 179.42 18"/>
    <path d="m29.42,77.5h-3v-32h3v32Z"/>
    <text class="cls-1" transform="translate(0 93.64)"><tspan x="0" y="0">COMMIT</tspan></text>
    <path d="m118.42,77.5h-3v-32h3v32Z"/>
    <text class="cls-1" transform="translate(89 93.64)"><tspan x="0" y="0">COMMIT</tspan></text>
    <path d="m208.42,77.5h-3v-32h3v32Z"/>
    <text class="cls-1" transform="translate(179 93.64)"><tspan x="0" y="0">COMMIT</tspan></text>
  </g>
</svg>