<?xml version="1.0" encoding="UTF-8"?>
<svg id="Layer_2" data-name="Layer 2" xmlns="http://www.w3.org/2000/svg" viewBox="0 0 216 36">
  <g id="Layer_1-2" data-name="Layer 1">
    <path d="m7.85,28.05h13.75v-3H7.85v3Zm0-8.55h20.3v-3H7.85v3Zm0-8.55h20.3v-3H7.85v3Zm-4.85,25.05c-.8,0-1.5-.3-2.1-.9-.6-.6-.9-1.3-.9-2.1V3c0-.8.3-1.5.9-2.1.6-.6,1.3-.9,2.1-.9h30c.8,0,1.5.3,2.1.9.6.6.9,1.3.9,2.1v30c0,.8-.3,1.5-.9,2.1-.6.6-1.3.9-2.1.9H3Zm0-3h30V3H3v30ZM3,3v30V3Z"/>
    <path d="m97.85,28.05h13.75v-3h-13.75v3Zm0-8.55h20.3v-3h-20.3v3Zm0-8.55h20.3v-3h-20.3v3Zm-4.85,25.05c-.8,0-1.5-.3-2.1-.9-.6-.6-.9-1.3-.9-2.1V3c0-.8.3-1.5.9-2.1.6-.6,1.3-.9,2.1-.9h30c.8,0,1.5.3,2.1.9.6.6.9,1.3.9,2.1v30c0,.8-.3,1.5-.9,2.1-.6.6-1.3.9-2.1.9h-30Zm0-3h30V3h-30v30Zm0-30v30V3Z"/>
    <polygon points="80 18 73.7 24.3 71.6 22.2 74.15 19.5 46 19.5 46 16.5 74.15 16.5 71.6 13.8 73.7 11.7 80 18"/>
    <path d="m187.85,28.05h13.75v-3h-13.75v3Zm0-8.55h20.3v-3h-20.3v3Zm0-8.55h20.3v-3h-20.3v3Zm-4.85,25.05c-.8,0-1.5-.3-2.1-.9-.6-.6-.9-1.3-.9-2.1V3c0-.8.3-1.5.9-2.1.6-.6,1.3-.9,2.1-.9h30c.8,0,1.5.3,2.1.9.6.6.9,1.3.9,2.1v30c0,.8-.3,1.5-.9,2.1-.6.6-1.3.9-2.1.9h-30Zm0-3h30V3h-30v30Zm0-30v30V3Z"/>
    <polygon points="170 18 163.7 24.3 161.6 22.2 164.15 19.5 136 19.5 136 16.5 164.15 16.5 161.6 13.8 163.7 11.7 170 18"/>
  </g>
</svg>