<?xml version="1.0" encoding="UTF-8"?>
<svg id="Layer_2" data-name="Layer 2" xmlns="http://www.w3.org/2000/svg" viewBox="0 0 476.5 62.82">
  <defs>
    <style>
      .cls-1 {
        font-family: "Roboto Condensed", Arial-BoldMT, Arial;
        font-size: 14px;
        font-weight: 700;
      }

      .cls-1, .cls-2 {
        isolation: isolate;
      }

      .cls-3 {
        fill: none;
        stroke: #000;
        stroke-miterlimit: 10;
        stroke-width: 3px;
      }
    </style>
  </defs>
  <g id="Layer_1-2" data-name="Layer 1">
    <line class="cls-3" x1="122" y1="18.49" x2="458.5" y2="18.49"/>
    <line class="cls-3" y1="18.49" x2="110" y2="18.49"/>
    <polygon points="476.5 18.49 470.2 24.79 468.1 22.69 470.65 19.99 442.5 19.99 442.5 16.99 470.65 16.99 468.1 14.29 470.2 12.19 476.5 18.49"/>
    <polygon points="361.5 55.49 355.2 61.79 353.1 59.69 355.65 56.99 327.5 56.99 327.5 53.99 355.65 53.99 353.1 51.29 355.2 49.19 361.5 55.49"/>
    <g class="cls-2">
      <text class="cls-1" transform="translate(.47 12.01)"><tspan x="0" y="0">Main</tspan></text>
    </g>
    <path class="cls-3" d="m116,24.99v26.5c0,2.21,1.79,4,4,4h15.5"/>
    <path class="cls-3" d="m212.43,55.49c-22.73,0-44.93,0-63.43,0"/>
    <g class="cls-2">
      <text class="cls-1" transform="translate(46.47 48.01)"><tspan x="0" y="0">dev</tspan></text>
    </g>
    <path class="cls-3" d="m122,18.49c0,3.31-2.69,6-6,6s-6-2.69-6-6c-.11-7.79,12.11-7.78,12,0Z"/>
    <path class="cls-3" d="m224,55.49c.11,7.78-12.11,7.78-12,0-.11-7.78,12.11-7.78,12,0Z"/>
    <path class="cls-3" d="m287.43,55.49c-22.73,0-44.93,0-63.43,0"/>
    <path class="cls-3" d="m332.5,55.49c-12,0-23.73,0-33.5,0"/>
    <path class="cls-3" d="m299,55.49c.11,7.78-12.11,7.78-12,0-.11-7.78,12.11-7.78,12,0Z"/>
    <path class="cls-3" d="m149,55.49c.11,7.78-12.11,7.78-12,0-.11-7.78,12.11-7.78,12,0Z"/>
  </g>
</svg>